HIERARCHY
ROOT newVegas:Hips
{
	OFFSET 0.000000 96.479958 0.000000
	CHANNELS 6 Xposition Yposition Zposition Xrotation Yrotation Zrotation
	JOINT newVegas:Pelvis
	{
		OFFSET 0.000000 0.000000 0.000000
		CHANNELS 3 Xrotation Yrotation Zrotation
		JOINT newVegas:LeftUpLeg
		{
			OFFSET 18.735201 -5.666702 -4.541200
			CHANNELS 3 Xrotation Yrotation Zrotation
			JOINT newVegas:LeftLeg
			{
				OFFSET -0.021200 -31.938179 0.493100
				CHANNELS 3 Xrotation Yrotation Zrotation
				JOINT newVegas:LeftFoot
				{
					OFFSET 0.021200 -31.938179 -4.336299
					CHANNELS 3 Xrotation Yrotation Zrotation
					JOINT newVegas:LeftToeBase
					{
						OFFSET 0.943001 -26.722000 15.023500
						CHANNELS 3 Xrotation Yrotation Zrotation
						End Site
						{
							OFFSET 0.000000 30.670183 0.000000
						}
					}
				}
				JOINT newVegas:Left_PantLeg
				{
					OFFSET 0.663870 -9.044666 -1.108900
					CHANNELS 3 Xrotation Yrotation Zrotation
					End Site
					{
						OFFSET 1.415995 20.635357 0.000000
					}
				}
			}
		}
		JOINT newVegas:RightUpLeg
		{
			OFFSET -18.735201 -5.666702 -4.541200
			CHANNELS 3 Xrotation Yrotation Zrotation
			JOINT newVegas:RightLeg
			{
				OFFSET 0.018946 -31.938133 0.493100
				CHANNELS 3 Xrotation Yrotation Zrotation
				JOINT newVegas:RightFoot
				{
					OFFSET -0.018946 -31.938126 -4.336299
					CHANNELS 3 Xrotation Yrotation Zrotation
					JOINT newVegas:RightToeBase
					{
						OFFSET -0.943001 -26.722004 15.023500
						CHANNELS 3 Xrotation Yrotation Zrotation
						End Site
						{
							OFFSET 0.000000 30.670187 0.000000
						}
					}
				}
				JOINT newVegas:Right_PantLeg
				{
					OFFSET -0.661674 -9.044716 -1.108900
					CHANNELS 3 Xrotation Yrotation Zrotation
					End Site
					{
						OFFSET -1.415958 20.635269 0.000000
					}
				}
			}
		}
	}
	JOINT newVegas:Spine
	{
		OFFSET 0.000000 10.199997 -0.299500
		CHANNELS 3 Xrotation Yrotation Zrotation
		JOINT newVegas:Spine1
		{
			OFFSET 0.000000 11.900002 -1.516600
			CHANNELS 3 Xrotation Yrotation Zrotation
			JOINT newVegas:Spine2
			{
				OFFSET 0.000000 13.600006 -2.842500
				CHANNELS 3 Xrotation Yrotation Zrotation
				JOINT newVegas:Neck
				{
					OFFSET 0.000000 9.624100 -2.890100
					CHANNELS 3 Xrotation Yrotation Zrotation
					JOINT newVegas:Head
					{
						OFFSET 0.000000 14.068802 -1.351900
						CHANNELS 3 Xrotation Yrotation Zrotation
						JOINT newVegas:Hair_Back
						{
							OFFSET 0.000000 3.231903 -17.524799
							CHANNELS 3 Xrotation Yrotation Zrotation
							End Site
							{
								OFFSET 0.000000 19.849884 0.000000
							}
						}
						JOINT newVegas:Hair_Front
						{
							OFFSET 0.000000 31.260406 4.573800
							CHANNELS 3 Xrotation Yrotation Zrotation
							JOINT newVegas:Hair_Front1
							{
								OFFSET 0.000000 2.284103 11.993300
								CHANNELS 3 Xrotation Yrotation Zrotation
								JOINT newVegas:Hair_Front2
								{
									OFFSET 0.000000 2.284103 11.993300
									CHANNELS 3 Xrotation Yrotation Zrotation
									End Site
									{
										OFFSET 0.000000 12.208862 0.000000
									}
								}
							}
						}
						JOINT newVegas:Jowel
						{
							OFFSET 0.000000 -7.458206 6.864100
							CHANNELS 3 Xrotation Yrotation Zrotation
							End Site
							{
								OFFSET 0.000000 19.849884 0.000000
							}
						}
					}
				}
				JOINT newVegas:LeftShoulder
				{
					OFFSET 15.263000 10.923401 -0.547700
					CHANNELS 3 Xrotation Yrotation Zrotation
					JOINT newVegas:LeftArm
					{
						OFFSET 25.438599 -2.830597 -13.032500
						CHANNELS 3 Xrotation Yrotation Zrotation
						JOINT newVegas:LeftForeArm
						{
							OFFSET 29.960503 0.000000 0.000000
							CHANNELS 3 Xrotation Yrotation Zrotation
							JOINT newVegas:LeftHand
							{
								OFFSET 27.849251 0.000000 0.000000
								CHANNELS 3 Xrotation Yrotation Zrotation
								JOINT newVegas:LeftHandThumb1
								{
									OFFSET 4.487587 -3.305161 6.305391
									CHANNELS 3 Xrotation Yrotation Zrotation
									JOINT newVegas:LeftHandThumb2
									{
										OFFSET 5.480453 -3.164139 3.164143
										CHANNELS 3 Xrotation Yrotation Zrotation
										JOINT newVegas:LeftHandThumb3
										{
											OFFSET 5.159721 -2.978973 2.978967
											CHANNELS 3 Xrotation Yrotation Zrotation
											End Site
											{
												OFFSET 2.494507 5.926697 1.738678
											}
										}
									}
								}
								JOINT newVegas:LeftHandIndex1
								{
									OFFSET 18.578728 -0.527832 5.208049
									CHANNELS 3 Xrotation Yrotation Zrotation
									JOINT newVegas:LeftHandIndex2
									{
										OFFSET 3.192009 0.000000 0.000000
										CHANNELS 3 Xrotation Yrotation Zrotation
										JOINT newVegas:LeftHandIndex3
										{
											OFFSET 3.835129 0.000000 0.000000
											CHANNELS 3 Xrotation Yrotation Zrotation
											End Site
											{
												OFFSET -0.034599 3.816971 0.371180
											}
										}
									}
								}
								JOINT newVegas:LeftHandMiddle1
								{
									OFFSET 18.476105 0.000000 0.000000
									CHANNELS 3 Xrotation Yrotation Zrotation
									JOINT newVegas:LeftHandMiddle2
									{
										OFFSET 3.324875 0.000000 0.000000
										CHANNELS 3 Xrotation Yrotation Zrotation
										JOINT newVegas:LeftHandMiddle3
										{
											OFFSET 4.596550 0.000000 0.000000
											CHANNELS 3 Xrotation Yrotation Zrotation
											End Site
											{
												OFFSET 0.057701 4.578827 0.399218
											}
										}
									}
								}
								JOINT newVegas:LeftHandRing1
								{
									OFFSET 17.732719 0.121887 -4.201567
									CHANNELS 3 Xrotation Yrotation Zrotation
									JOINT newVegas:LeftHandRing2
									{
										OFFSET 2.733170 0.000000 0.000000
										CHANNELS 3 Xrotation Yrotation Zrotation
										JOINT newVegas:LeftHandRing3
										{
											OFFSET 3.178268 0.000000 0.000000
											CHANNELS 3 Xrotation Yrotation Zrotation
											End Site
											{
												OFFSET 0.119102 3.170624 0.185394
											}
										}
									}
								}
								JOINT newVegas:LeftHandPinky1
								{
									OFFSET 15.989624 -0.606689 -7.535461
									CHANNELS 3 Xrotation Yrotation Zrotation
									JOINT newVegas:LeftHandPinky2
									{
										OFFSET 2.538986 0.000000 0.000000
										CHANNELS 3 Xrotation Yrotation Zrotation
										JOINT newVegas:LeftHandPinky3
										{
											OFFSET 2.593102 0.000000 0.000000
											CHANNELS 3 Xrotation Yrotation Zrotation
											End Site
											{
												OFFSET -0.150902 2.584198 0.152708
											}
										}
									}
								}
							}
							JOINT newVegas:Left_Sleeve
							{
								OFFSET 0.267448 -0.649796 0.577675
								CHANNELS 3 Xrotation Yrotation Zrotation
								End Site
								{
									OFFSET 0.000000 15.991241 0.000000
								}
							}
							JOINT newVegas:Left_CapeC
							{
								OFFSET 15.715958 -8.608795 -6.935905
								CHANNELS 3 Xrotation Yrotation Zrotation
								JOINT newVegas:Left_CapeC1
								{
									OFFSET 0.000000 -8.688499 0.000000
									CHANNELS 3 Xrotation Yrotation Zrotation
									End Site
									{
										OFFSET 0.000000 8.688499 0.000000
									}
								}
							}
						}
						JOINT newVegas:Left_CapeB
						{
							OFFSET 26.118385 -8.608795 -7.079235
							CHANNELS 3 Xrotation Yrotation Zrotation
							JOINT newVegas:Left_CapeB1
							{
								OFFSET 0.000000 -8.688499 0.000000
								CHANNELS 3 Xrotation Yrotation Zrotation
								End Site
								{
									OFFSET 0.000000 8.688499 0.000000
								}
							}
						}
						JOINT newVegas:Left_CapeA
						{
							OFFSET 5.115639 -8.608795 -10.395809
							CHANNELS 3 Xrotation Yrotation Zrotation
							JOINT newVegas:Left_CapeA1
							{
								OFFSET 0.000000 -8.688499 0.000000
								CHANNELS 3 Xrotation Yrotation Zrotation
								End Site
								{
									OFFSET 0.000000 8.688499 0.000000
								}
							}
						}
					}
				}
				JOINT newVegas:RightShoulder
				{
					OFFSET -15.263000 10.923401 -0.547700
					CHANNELS 3 Xrotation Yrotation Zrotation
					JOINT newVegas:RightArm
					{
						OFFSET -25.438599 -2.830597 -13.032500
						CHANNELS 3 Xrotation Yrotation Zrotation
						JOINT newVegas:RightForeArm
						{
							OFFSET -29.960503 0.000000 0.000000
							CHANNELS 3 Xrotation Yrotation Zrotation
							JOINT newVegas:RightHand
							{
								OFFSET -27.849251 0.000000 0.000000
								CHANNELS 3 Xrotation Yrotation Zrotation
								JOINT newVegas:RightHandThumb1
								{
									OFFSET -4.487587 -3.305161 6.305391
									CHANNELS 3 Xrotation Yrotation Zrotation
									JOINT newVegas:RightHandThumb2
									{
										OFFSET -5.480453 -3.164139 3.164143
										CHANNELS 3 Xrotation Yrotation Zrotation
										JOINT newVegas:RightHandThumb3
										{
											OFFSET -5.159721 -2.978973 2.978967
											CHANNELS 3 Xrotation Yrotation Zrotation
											End Site
											{
												OFFSET -2.494507 5.926697 1.738678
											}
										}
									}
								}
								JOINT newVegas:RightHandIndex1
								{
									OFFSET -18.578728 -0.527832 5.208049
									CHANNELS 3 Xrotation Yrotation Zrotation
									JOINT newVegas:RightHandIndex2
									{
										OFFSET -3.192009 0.000000 0.000000
										CHANNELS 3 Xrotation Yrotation Zrotation
										JOINT newVegas:RightHandIndex3
										{
											OFFSET -3.835129 0.000000 0.000000
											CHANNELS 3 Xrotation Yrotation Zrotation
											End Site
											{
												OFFSET 0.034599 3.816971 0.371180
											}
										}
									}
								}
								JOINT newVegas:RightHandMiddle1
								{
									OFFSET -18.476105 0.000000 0.000000
									CHANNELS 3 Xrotation Yrotation Zrotation
									JOINT newVegas:RightHandMiddle2
									{
										OFFSET -3.324875 0.000000 0.000000
										CHANNELS 3 Xrotation Yrotation Zrotation
										JOINT newVegas:RightHandMiddle3
										{
											OFFSET -4.596550 0.000000 0.000000
											CHANNELS 3 Xrotation Yrotation Zrotation
											End Site
											{
												OFFSET -0.057701 4.578827 0.399218
											}
										}
									}
								}
								JOINT newVegas:RightHandRing1
								{
									OFFSET -17.732719 0.121887 -4.201567
									CHANNELS 3 Xrotation Yrotation Zrotation
									JOINT newVegas:RightHandRing2
									{
										OFFSET -2.733170 0.000000 0.000000
										CHANNELS 3 Xrotation Yrotation Zrotation
										JOINT newVegas:RightHandRing3
										{
											OFFSET -3.178268 0.000000 0.000000
											CHANNELS 3 Xrotation Yrotation Zrotation
											End Site
											{
												OFFSET -0.119102 3.170624 0.185394
											}
										}
									}
								}
								JOINT newVegas:RightHandPinky1
								{
									OFFSET -15.989624 -0.606689 -7.535461
									CHANNELS 3 Xrotation Yrotation Zrotation
									JOINT newVegas:RightHandPinky2
									{
										OFFSET -2.538986 0.000000 0.000000
										CHANNELS 3 Xrotation Yrotation Zrotation
										JOINT newVegas:RightHandPinky3
										{
											OFFSET -2.593102 0.000000 0.000000
											CHANNELS 3 Xrotation Yrotation Zrotation
											End Site
											{
												OFFSET 0.150902 2.584198 0.152708
											}
										}
									}
								}
							}
							JOINT newVegas:Right_CapeC
							{
								OFFSET -15.715958 -8.608795 -6.935905
								CHANNELS 3 Xrotation Yrotation Zrotation
								JOINT newVegas:Right_CapeC1
								{
									OFFSET 0.000000 -8.688499 0.000000
									CHANNELS 3 Xrotation Yrotation Zrotation
									End Site
									{
										OFFSET 0.000000 8.688499 0.000000
									}
								}
							}
							JOINT newVegas:Right_Sleeve
							{
								OFFSET -0.267448 -0.649994 0.577675
								CHANNELS 3 Xrotation Yrotation Zrotation
								End Site
								{
									OFFSET 0.000000 15.991302 0.000000
								}
							}
						}
						JOINT newVegas:Right_CapeA
						{
							OFFSET -5.115540 -8.608795 -10.395824
							CHANNELS 3 Xrotation Yrotation Zrotation
							JOINT newVegas:Right_CapeA1
							{
								OFFSET 0.000000 -8.688499 0.000000
								CHANNELS 3 Xrotation Yrotation Zrotation
								End Site
								{
									OFFSET 0.000000 8.688499 0.000000
								}
							}
						}
						JOINT newVegas:Right_CapeB
						{
							OFFSET -26.118187 -8.608795 -7.079266
							CHANNELS 3 Xrotation Yrotation Zrotation
							JOINT newVegas:Right_CapeB1
							{
								OFFSET 0.000000 -8.688499 0.000000
								CHANNELS 3 Xrotation Yrotation Zrotation
								End Site
								{
									OFFSET 0.000000 8.688499 0.000000
								}
							}
						}
					}
				}
				JOINT newVegas:Left_Collar
				{
					OFFSET 18.625099 8.655502 8.828100
					CHANNELS 3 Xrotation Yrotation Zrotation
					JOINT newVegas:Left_Collar1
					{
						OFFSET 14.783401 10.540405 -1.259500
						CHANNELS 3 Xrotation Yrotation Zrotation
						End Site
						{
							OFFSET 0.000000 18.199875 0.000000
						}
					}
				}
				JOINT newVegas:Collar_Back
				{
					OFFSET 0.000000 15.630707 -20.132601
					CHANNELS 3 Xrotation Yrotation Zrotation
					End Site
					{
						OFFSET 0.000000 22.523010 0.000000
					}
				}
				JOINT newVegas:Left_Peck
				{
					OFFSET 17.239599 -5.132599 25.482599
					CHANNELS 3 Xrotation Yrotation Zrotation
					End Site
					{
						OFFSET 0.000000 22.523010 0.000000
					}
				}
				JOINT newVegas:Right_Peck
				{
					OFFSET -17.239599 -5.132202 25.482599
					CHANNELS 3 Xrotation Yrotation Zrotation
					End Site
					{
						OFFSET 0.000000 22.523010 0.000000
					}
				}
				JOINT newVegas:Right_Collar
				{
					OFFSET -18.625099 8.655792 8.828100
					CHANNELS 3 Xrotation Yrotation Zrotation
					JOINT newVegas:Right_Collar1
					{
						OFFSET -14.783401 10.539993 -1.259500
						CHANNELS 3 Xrotation Yrotation Zrotation
						End Site
						{
							OFFSET 0.000000 18.199631 0.000000
						}
					}
				}
			}
		}
		JOINT newVegas:Belly
		{
			OFFSET 0.000000 -6.540398 9.014299
			CHANNELS 3 Xrotation Yrotation Zrotation
			End Site
			{
				OFFSET 0.000000 11.566666 0.000000
			}
		}
	}
	JOINT newVegas:ElvisFacialAnim_Joint
	{
		OFFSET 1.000000 -95.330101 -8.825800
		CHANNELS 3 Xrotation Yrotation Zrotation
		End Site
		{
			OFFSET 0.000000 35.315800 0.000000
		}
	}
}
MOTION
Frames: 4
Frame Time: 0.033333
131.897247 117.568123 29.770332 21.509307 -9.995680 -207.664744 -0.000002 0.000000 0.000002 -56.302643 -4.409584 -6.134176 90.015978 -2.216161 -0.169385 -6.643786 3.807938 -16.539768 0.000000 0.000000 -0.000000 0.000000 0.000000 -0.000000 -27.319198 0.439531 5.449123 62.111568 -2.365768 -0.342963 40.033002 21.177208 13.280651 -0.000001 -0.000000 -0.000000 0.000001 0.000000 -0.000000 13.163586 -4.025892 -9.162651 0.083353 -0.379955 -2.162729 0.083898 -0.275478 -2.183494 -2.497737 -0.792075 -1.794839 -2.497742 -0.792075 -1.794822 -0.000001 0.000000 -0.000000 -2.497750 -0.792080 -1.794832 -2.497741 -0.792064 -1.794835 0.000002 -0.000001 -0.000002 -0.000001 0.000000 -0.000001 1.434478 -4.964284 -9.463968 -4.991823 9.223966 -11.549717 0.000006 -45.447187 0.000004 21.758642 -15.273059 -0.392309 5.160301 -1.071310 4.434652 7.437846 13.768071 3.789424 0.000002 -0.000002 -0.000005 0.336818 -2.991228 -1.280322 0.779149 2.921108 -29.863814 -0.000001 0.000001 -0.000001 -0.684389 0.188540 -14.580417 0.550471 2.481204 -25.014647 -0.000001 -0.000001 -0.000002 0.920098 5.726826 -20.122540 0.476165 2.315399 -23.238658 -0.000001 -0.000002 0.000003 2.245421 16.266017 -22.758819 0.572781 2.528394 -25.525069 0.000004 0.000000 -0.000000 -0.000000 -0.000001 0.000002 -0.000000 -0.000001 0.000002 -0.000000 -0.000001 0.000001 -0.000000 0.000002 0.000001 -0.000001 0.000001 0.000001 -0.000000 0.000002 0.000001 -0.000000 0.000001 0.000001 3.479986 3.639162 -40.096441 -62.809887 3.550713 2.589689 0.000002 20.432962 0.000004 9.299380 -9.983993 -74.788140 -71.507177 -11.839662 10.493801 4.383507 -12.390356 -5.280946 0.000004 -0.000003 0.000001 3.787037 13.269887 -10.821961 0.016454 -0.391552 4.812256 -0.000001 -0.000004 -0.000001 -0.057989 -2.308076 -11.830651 0.017640 -0.405400 4.982900 0.000000 -0.000002 -0.000000 -2.045316 -11.904408 -12.216355 0.011293 -0.324433 3.985835 -0.000000 0.000001 -0.000000 -6.217478 -19.699702 -15.874966 0.017631 -0.405310 4.981632 0.000000 -0.000002 -0.000000 -0.000001 0.000000 0.000000 -0.000001 0.000000 0.000000 -0.000001 0.000000 0.000000 0.000000 0.000000 0.000000 0.000000 0.000000 0.000000 0.000000 0.000000 0.000000 0.000000 -0.000000 0.000000 -0.000000 0.000000 0.000002 -0.000000 0.000000 0.000002 -0.000000 0.000000 0.000002 -0.000000 0.000000 0.000002 -0.000000 0.000000 0.000002 -0.000000 0.000000 0.000002 -0.000000 0.000000 0.000002 0.000000 -0.000000 0.000003 -0.000002 0.000000 0.000002 
131.040466 119.106026 29.588867 16.148671 -12.798990 -207.060381 -0.000000 0.000000 -0.000002 -43.904777 -7.428524 -0.209604 93.474322 -1.887371 1.773876 -16.355431 4.444025 -12.254167 -0.000000 0.000000 0.000000 -0.000000 0.000002 0.000004 -39.539507 -1.973636 7.797569 65.561995 -3.040682 0.591174 41.805293 18.202676 5.643860 -0.000005 0.000000 0.000000 -0.000000 -0.000000 -0.000001 13.437913 -7.948905 -9.586801 0.270034 -1.282705 -2.721655 0.303132 -1.142007 -2.751426 -2.277297 -0.569583 -2.074258 -2.277298 -0.569584 -2.074270 -0.000001 0.000000 -0.000000 -2.277308 -0.569592 -2.074260 -2.277271 -0.569561 -2.074267 -0.000001 -0.000001 -0.000001 -0.000001 0.000000 0.000002 1.027856 -8.786625 -11.026921 -12.556990 1.650521 -8.049903 -0.000011 -51.452501 -0.000015 16.595152 -16.832142 0.547149 5.846995 -1.904490 4.016191 7.568847 15.242303 3.919768 0.000000 -0.000000 -0.000003 0.349116 -3.009990 -0.933801 0.675402 2.732752 -27.760556 0.000001 0.000001 0.000000 -0.684881 0.222163 -14.714886 0.495253 2.359314 -23.706610 -0.000004 -0.000002 0.000001 0.952975 5.778253 -20.631201 0.523902 2.423476 -24.393281 -0.000000 0.000001 -0.000001 2.307516 16.394694 -24.194335 0.643613 2.671536 -27.086374 -0.000004 -0.000003 -0.000003 -0.000001 0.000002 -0.000000 -0.000001 0.000002 -0.000000 -0.000002 0.000003 0.000000 0.000000 0.000001 -0.000002 -0.000000 -0.000000 -0.000002 0.000000 0.000001 -0.000002 0.000000 0.000002 -0.000003 4.006214 2.570984 -39.874812 -64.614129 -0.056183 -0.417561 -0.000005 21.815464 -0.000001 15.369626 -8.526431 -70.301921 -71.550999 -11.854602 10.511675 4.511825 -14.414534 -5.480455 -0.000000 -0.000002 -0.000001 3.764235 13.157092 -9.767018 0.016452 -0.391534 4.812054 -0.000000 -0.000000 -0.000000 -0.057397 -2.357524 -11.233406 0.017646 -0.405453 4.983762 0.000000 0.000000 0.000000 -2.046931 -11.907183 -12.221987 0.011291 -0.324489 3.986615 -0.000000 -0.000003 -0.000001 -6.216632 -19.703419 -15.872668 0.017642 -0.405432 4.983256 -0.000000 -0.000002 -0.000000 0.000002 -0.000000 -0.000000 0.000001 -0.000000 -0.000001 0.000002 -0.000000 0.000000 0.000001 0.000001 -0.000000 0.000001 0.000001 -0.000000 0.000001 0.000001 -0.000000 0.000001 0.000001 -0.000000 0.000000 0.000000 0.000003 0.000000 0.000000 0.000003 0.000000 0.000000 0.000003 0.000000 0.000000 0.000003 0.000000 0.000000 0.000003 0.000000 0.000000 0.000003 0.000000 0.000000 0.000003 -0.000000 -0.000000 0.000001 -0.000000 0.000000 -0.000002 
130.306549 120.282990 29.441936 11.279541 -15.021603 -206.981506 0.000000 -0.000001 0.000003 -30.241513 -8.689646 11.440622 92.079590 0.898295 2.565301 -23.369661 5.276309 -12.034634 0.000003 -0.000000 0.000000 -0.000003 -0.000000 0.000003 -51.791716 -5.280496 9.200446 68.945979 -3.124754 1.884927 42.622505 14.634942 -2.397854 -0.000002 -0.000000 -0.000000 0.000000 -0.000001 -0.000000 13.984115 -12.836594 -9.641630 0.457083 -2.411889 -3.341160 0.545101 -2.223312 -3.381175 -2.028996 -0.774977 -2.253128 -2.028995 -0.774973 -2.253135 -0.000000 -0.000001 0.000002 -2.029003 -0.774931 -2.253130 -2.028964 -0.774984 -2.253133 -0.000000 0.000000 0.000002 -0.000000 -0.000001 0.000001 0.871765 -11.168709 -12.666926 -19.332446 -3.945587 -7.183745 -0.000030 -64.553067 -0.000018 23.848104 -14.075400 2.973391 7.045540 -3.389089 3.343125 7.789617 17.795455 4.154439 0.000002 0.000000 0.000001 0.371107 -3.046588 -0.304587 0.565985 2.514132 -25.370584 -0.000002 -0.000001 0.000002 -0.684916 0.276815 -14.926502 0.468339 2.297130 -23.044471 0.000005 0.000002 -0.000004 1.053372 5.916937 -22.312298 0.664566 2.712022 -27.532061 -0.000001 -0.000002 0.000002 2.439586 16.552391 -26.976995 0.817183 2.986273 -30.601816 0.000004 -0.000005 0.000003 0.000001 0.000000 0.000001 0.000001 0.000000 0.000001 -0.000000 0.000000 0.000001 -0.000000 -0.000003 -0.000000 -0.000001 -0.000003 -0.000000 -0.000000 -0.000003 -0.000000 -0.000001 -0.000003 0.000000 4.403672 1.467435 -39.972436 -67.254332 -3.798800 -1.625646 0.000001 23.149215 0.000003 23.390772 -5.808448 -66.944118 -71.559045 -11.855043 10.512852 4.647935 -16.706950 -5.707904 -0.000000 -0.000004 0.000001 3.752005 13.080847 -8.657577 0.016450 -0.391504 4.811734 -0.000000 -0.000003 0.000000 -0.056644 -2.412090 -10.601832 0.017650 -0.405499 4.984178 -0.000000 -0.000003 -0.000002 -2.047065 -11.909427 -12.220377 0.011296 -0.324547 3.987111 -0.000001 0.000004 -0.000001 -6.217908 -19.704274 -15.877492 0.017647 -0.405506 4.984135 0.000000 0.000002 0.000001 -0.000002 0.000001 -0.000000 -0.000002 -0.000001 0.000000 -0.000002 0.000001 -0.000001 0.000001 0.000000 -0.000000 0.000001 0.000000 -0.000000 0.000001 0.000000 -0.000000 0.000001 -0.000000 -0.000000 -0.000001 0.000000 -0.000001 -0.000001 0.000000 -0.000001 -0.000001 0.000000 -0.000001 -0.000001 0.000000 -0.000001 -0.000001 0.000000 -0.000001 -0.000001 0.000000 -0.000001 -0.000001 0.000000 -0.000001 0.000000 0.000000 0.000001 0.000000 -0.000001 0.000003 
129.416656 121.106911 28.522020 7.671489 -16.310741 -206.723462 -0.000000 -0.000001 0.000001 -20.917362 -7.090656 21.551065 87.744558 -4.689629 2.922737 -23.118983 5.013809 -11.045164 -0.000002 0.000000 0.000001 0.000003 -0.000001 0.000001 -64.027744 -8.512305 9.397165 73.780209 -3.597543 3.285779 42.304891 11.874970 -7.757799 -0.000001 0.000001 0.000001 -0.000000 0.000000 -0.000001 14.843400 -17.593101 -9.565276 0.610552 -3.447499 -3.951126 0.758317 -3.204191 -4.001708 -1.797058 -1.854844 -2.356788 -1.797055 -1.854842 -2.356780 0.000002 -0.000000 0.000001 -1.797038 -1.854822 -2.356795 -1.797071 -1.854865 -2.356786 -0.000001 -0.000002 -0.000004 0.000002 -0.000000 0.000001 0.714381 -13.291777 -14.801023 -24.094131 -7.685536 -8.712238 -0.000049 -79.766214 -0.000066 33.790175 -8.730142 -1.345241 8.592957 -5.311480 2.635862 8.053150 20.938812 4.448009 0.000002 -0.000002 0.000000 0.401297 -3.109793 0.598402 0.455525 2.266814 -22.722696 -0.000002 0.000001 -0.000000 -0.682432 0.328391 -15.092276 0.453810 2.262669 -22.678745 0.000001 -0.000001 0.000001 1.200715 6.104701 -24.699815 0.877341 3.085591 -31.737813 0.000000 -0.000001 0.000001 2.616898 16.747086 -30.482964 1.068764 3.375062 -35.133967 0.000001 -0.000003 -0.000003 0.000000 0.000001 -0.000000 0.000000 0.000001 -0.000000 0.000000 0.000001 0.000000 0.000001 0.000002 -0.000001 0.000001 0.000001 -0.000001 0.000001 0.000002 -0.000001 0.000000 0.000000 -0.000001 3.844048 0.205484 -39.942352 -69.069284 -4.894285 -1.211033 -0.000007 21.159328 0.000003 32.541682 -1.248636 -66.460534 -71.546689 -11.850291 10.507291 4.768832 -18.906542 -5.928790 -0.000001 -0.000001 -0.000001 3.742657 13.008398 -7.575702 0.016450 -0.391506 4.811715 -0.000000 -0.000000 -0.000001 -0.055062 -2.463970 -9.985267 0.017646 -0.405495 4.984039 0.000001 0.000002 0.000001 -2.046574 -11.909089 -12.218134 0.011295 -0.324517 3.986978 -0.000001 0.000001 -0.000000 -6.218503 -19.703293 -15.879399 0.017647 -0.405483 4.983815 -0.000001 -0.000000 -0.000000 -0.000003 0.000000 0.000000 -0.000003 -0.000000 0.000000 -0.000003 -0.000000 0.000000 -0.000001 0.000000 0.000000 -0.000001 0.000000 0.000001 -0.000001 0.000000 0.000000 -0.000001 -0.000000 0.000001 -0.000000 -0.000001 -0.000002 -0.000000 -0.000001 -0.000002 -0.000000 -0.000001 -0.000002 -0.000000 -0.000001 -0.000002 -0.000000 -0.000001 -0.000002 -0.000000 -0.000001 -0.000002 -0.000000 -0.000001 -0.000002 -0.000000 0.000000 0.000000 -0.000000 -0.000001 0.000001 
